<svg width="450" height="450" viewBox="0 0 850 850" fill="none" xmlns="http://www.w3.org/2000/svg">
<g clip-path="url(#clip0_652_3)">
<path d="M591.2 326.634L604.263 323.196L595.41 441.294L579.736 441.817L587.642 330.924C587.788 328.88 589.217 327.155 591.2 326.634Z" fill="#184655"/>
<path d="M596.581 444.661C596.289 444.688 595.989 444.686 595.685 444.65C593.09 444.342 591.169 441.761 591.395 438.884L600.091 327.838C600.317 324.961 602.601 322.875 605.198 323.183C607.792 323.49 609.713 326.07 609.487 328.947L600.791 439.995C600.592 442.536 598.788 444.457 596.581 444.661Z" fill="#F7CC7F"/>
<path d="M476.346 450.576C476.351 450.658 476.354 450.741 476.362 450.822C476.772 455.339 480.272 458.718 484.18 458.367L594.509 448.495C598.417 448.144 601.254 444.198 600.846 439.679C600.828 439.488 600.803 439.301 600.774 439.115L476.346 450.576Z" fill="#F7CC7F"/>
<path d="M549.117 571.688C541.621 575.163 520.104 566.562 520.15 565.929C519.398 571.927 490.789 629.082 490.789 629.082L489.497 647.211C489.497 647.211 539.493 653.232 539.091 648.747C538.69 644.262 535.784 646.949 526.382 637.852C525.547 637.044 511.731 632.767 516.136 624.725C525.005 608.529 543.29 581.778 549.117 571.688Z" fill="#F7A491"/>
<path d="M487.069 646.636L541.583 654.368C543.579 654.446 544.265 652.912 543.708 651.84C542.56 649.634 532.782 643.431 526.202 639.302C513.767 638.998 492.928 631.251 491.355 628.183C485.195 634.385 486.003 646.253 487.069 646.636Z" fill="#3C8F7C"/>
<path d="M483.456 525.488C482.826 523.218 531.947 505.252 533.981 507.692C537.579 512.011 503.829 587.913 503.829 587.913L537.565 600.121C537.565 600.121 577.724 512.486 577.066 496.052C576.409 479.619 559.506 460.122 520.236 470.059C480.966 479.996 483.456 525.488 483.456 525.488Z" fill="#355389"/>
<path d="M583.317 585.332C575.329 583.228 564.858 581.995 556.461 581.198C556.871 588.761 558.71 627.523 557.648 629.813C553.345 639.093 545.095 642.955 545.095 642.955C545.095 642.955 579.765 679.473 582.317 675.763C584.869 672.052 580.916 672.269 579.473 659.266C579.346 658.112 575.342 639.807 575.755 630.135C576.542 611.685 582.248 595.527 583.317 585.332Z" fill="#F7A491"/>
<path d="M574.492 458.334C569.352 455.414 555.819 454.956 540.91 455.524C511.843 456.632 483.05 461.582 455.203 469.99L436.569 475.616L437.135 456.68C437.135 456.68 378.636 445.285 376.204 459.795C372.541 481.644 375.177 526.269 394.49 536.727C454.481 569.214 541.828 491.437 541.858 501.919C541.899 515.993 552.362 568.643 554.782 591.639C563.209 592.009 577.694 592.388 584.014 591.113C586.43 546.258 589.123 466.647 574.492 458.334Z" fill="#466EB6"/>
<path d="M544.008 643.2L582.519 680.756C584.068 682.018 585.538 681.204 585.736 680.013C586.144 677.559 582.055 666.723 579.278 659.471C569.519 651.757 557.506 632.969 558.092 629.572C553.313 632.857 543.386 642.255 544.008 643.2Z" fill="#3C8F7C"/>
<path d="M460.43 273.994C460.118 261.016 459.734 247.982 449.876 237.65C441.899 229.288 431.041 227.063 419.849 230.221C388.138 239.169 401.648 267.806 360.124 291.987C347.222 299.5 333.305 304.211 323.16 314.944C308.959 329.967 312.153 349.761 322.745 363.699C373.427 430.382 443.006 352.07 449.199 332.376C453.806 317.726 460.63 282.348 460.43 273.994Z" fill="#13375B"/>
<path d="M445.859 344.209C441.423 335.672 436.818 328.879 436.818 328.879C432.211 320.337 419.997 315.843 419.997 315.843C419.997 315.843 415.885 315.853 411.161 316.002C410.855 316.78 410.548 317.333 410.243 317.553C408.445 318.851 398.309 316.953 391.663 321.295C369.318 339.772 373.784 431.331 375.003 460.245L442.024 462.068C442.024 462.068 434.674 399.769 448.577 384.044C458.258 373.092 452.441 356.871 445.859 344.209Z" fill="#50BFA5"/>
<path d="M418.415 284.562C418.415 284.562 413.334 310.649 410.425 316.898C407.513 323.147 423.488 337.695 437.165 342.581C450.841 347.468 433.67 328.247 434.609 321.451C435.55 314.655 439.796 282.464 439.796 282.464L418.415 284.562Z" fill="#F7A491"/>
<path d="M438.6 291.697C439.291 286.37 439.796 282.464 439.796 282.464L418.414 284.562C418.414 284.562 417.714 287.62 416.89 291.955C425.223 297.402 433.039 296.24 438.6 291.697Z" fill="#F47458"/>
<path d="M427.62 236.911C427.62 236.911 419.161 238.351 413.579 245.954C407.997 253.557 403.219 276.557 419.645 288.288C436.069 300.019 450.109 285.411 451.123 270.487C452.138 255.563 449.998 235.461 427.62 236.911Z" fill="#F7A491"/>
<path d="M455.265 266.021C453.622 269.548 450.625 271.631 448.571 270.674C446.517 269.716 446.182 266.082 447.825 262.556C449.467 259.029 452.464 256.946 454.518 257.903C456.572 258.86 456.907 262.494 455.265 266.021Z" fill="#F7A491"/>
<path d="M430.157 236.556C430.157 236.556 418.225 259.895 408.747 261.532C399.27 263.168 398.765 275.205 398.765 275.205C398.765 275.205 400.453 247.437 409.569 241.532C418.683 235.629 430.157 236.556 430.157 236.556Z" fill="#13375B"/>
<path d="M412.201 266.698C413.226 270.646 411.896 274.408 409.227 275.102C406.558 275.796 403.565 273.158 402.538 269.209C401.512 265.261 402.844 261.5 405.513 260.806C408.181 260.113 411.175 262.75 412.201 266.698Z" fill="#F7A491"/>
<path d="M531.726 434.525C527.645 433.245 521.654 433.322 521.733 432.787C522.043 430.622 540.094 436.745 537.56 433.715C536.15 432.028 522.598 426.422 519.411 427.582C516.321 428.707 495.993 435.367 495.993 435.367L439.189 424.612C439.189 424.612 423.605 392.969 421.025 365.316C409.361 367.409 401.496 370.653 391.543 376.751C397.603 403.041 411.408 445.484 424.968 452.975C430.672 456.127 496.722 445.816 496.722 445.816C496.722 445.816 511.303 444.151 513.654 443.129C515.437 442.353 519.989 439.526 522.498 438.697C528.197 436.814 538.656 440.473 538.639 439.342C538.627 438.518 535.897 435.832 531.726 434.525Z" fill="#F7A491"/>
<path d="M421.352 336.168C420.724 327.639 417.407 319.433 408.299 316.871C402.655 315.283 396.356 316.921 391.896 320.64C386.59 325.065 385.167 332.089 385.259 338.724C385.468 353.789 386.654 369.399 389.557 384.204C399.706 378.437 411.586 374.911 423.313 373.203C423.307 373.115 422.182 347.44 421.352 336.168Z" fill="#96D9C9"/>
<path d="M327.471 204.666L321.061 206.633L316.758 196.67L307.033 198.39L302.594 191.462L299.086 193.709L305.023 202.977L314.24 201.347L318.717 211.71L328.361 208.751L327.471 204.666Z" fill="#50BFA5"/>
<path d="M738.469 562.983L732.059 564.95L727.756 554.987L718.031 556.707L713.592 549.779L710.084 552.026L716.021 561.293L725.238 559.664L729.715 570.027L739.359 567.067L738.469 562.983Z" fill="#50BFA5"/>
<path d="M409.871 134.905C392.394 137.781 387.203 160.719 401.733 170.979C404.342 172.822 406.149 175.593 406.917 178.694L409.562 189.364C410.291 192.304 413.158 194.191 416.146 193.7L422.767 192.609C425.757 192.118 427.867 189.412 427.615 186.394C426.696 175.378 425.559 171.381 429.14 166.468C439.614 152.096 427.351 132.028 409.871 134.905Z" fill="#F7CC7F"/>
<path d="M411.654 181.538C410.515 172.1 408.918 162.135 408.375 159.31C398.358 159.863 402.165 149.304 406.788 153.597C408.105 154.821 408.729 156.481 409.139 158.299C412.466 158 415.718 157.049 418.683 155.518C418.524 153.19 418.293 151.427 418.944 149.938C419.925 147.689 422.776 147.076 423.936 149.267C424.371 150.091 424.447 151.143 424.132 152.015C423.461 153.876 421.439 155.106 419.678 156.069C420.204 163.571 420.933 171.132 421.853 178.578L420.906 178.695C420.001 171.369 419.281 163.932 418.756 156.549C415.813 158.011 412.609 158.93 409.332 159.238C410.017 162.851 411.533 172.563 412.6 181.423L411.654 181.538ZM403.619 157.085C404.509 158.045 406 158.466 408.176 158.367C407.801 156.763 407.243 155.32 406.139 154.296C403.652 151.985 402.126 155.475 403.619 157.085ZM419.817 150.318C419.271 151.57 419.478 153.175 419.605 155.018C421.036 154.203 422.699 153.184 423.237 151.691C423.614 150.645 423.189 149.166 422.123 148.894C422.009 148.864 420.201 149.44 419.817 150.318Z" fill="#FAE0B2"/>
<path d="M406.838 178.43C406.861 178.518 406.894 178.604 406.916 178.694L409.561 189.364C410.289 192.304 413.156 194.19 416.145 193.698L422.765 192.609C425.755 192.118 427.864 189.41 427.611 186.392C427.203 181.491 426.753 177.983 426.693 175.163L406.838 178.43Z" fill="#96D9C9"/>
<path d="M396.916 126.938L391.689 117.397C391.185 116.474 391.522 115.317 392.445 114.811C393.368 114.306 394.527 114.643 395.033 115.566L400.259 125.106C400.764 126.029 400.427 127.187 399.504 127.694C398.576 128.202 397.419 127.856 396.916 126.938Z" fill="#FAE0B2"/>
<path d="M385.494 150.013L374.102 149.017C373.053 148.925 372.277 148.001 372.369 146.952C372.46 145.904 373.385 145.125 374.434 145.218L385.826 146.214C386.875 146.306 387.65 147.23 387.559 148.28C387.468 149.327 386.545 150.104 385.494 150.013Z" fill="#FAE0B2"/>
<path d="M374.197 184.938C373.456 184.189 373.465 182.982 374.213 182.241C377.014 179.474 380.092 176.962 383.366 174.776C384.241 174.191 385.426 174.427 386.01 175.302C386.595 176.177 386.359 177.361 385.484 177.945C382.411 179.999 379.521 182.356 376.893 184.952C376.147 185.688 374.94 185.69 374.197 184.938Z" fill="#FAE0B2"/>
<path d="M425.061 126.422C424.044 126.15 423.439 125.106 423.712 124.09C425.003 119.26 425.792 114.28 426.061 109.288C426.117 108.237 427.014 107.428 428.066 107.486C429.117 107.543 429.924 108.441 429.868 109.492C429.585 114.746 428.752 119.989 427.394 125.072C427.12 126.095 426.071 126.693 425.061 126.422Z" fill="#FAE0B2"/>
<path d="M436.793 141.065C436.489 140.057 437.06 138.994 438.068 138.691L449.909 135.121C450.919 134.817 451.981 135.389 452.285 136.396C452.589 137.404 452.018 138.466 451.01 138.77L439.168 142.34C438.162 142.642 437.096 142.076 436.793 141.065Z" fill="#FAE0B2"/>
<path d="M456.245 172.578C456.074 172.578 455.902 172.554 455.729 172.506C451.625 171.352 447.634 169.754 443.869 167.753C442.939 167.259 442.587 166.105 443.08 165.175C443.573 164.245 444.729 163.893 445.659 164.386C449.183 166.259 452.918 167.758 456.76 168.837C457.773 169.123 458.365 170.174 458.08 171.188C457.842 172.028 457.077 172.578 456.245 172.578Z" fill="#FAE0B2"/>
<path d="M629.712 257.356L623.737 243.226L608.709 240.138C606.998 239.787 606.435 237.625 607.755 236.481L619.344 226.434L617.638 211.189C617.443 209.452 619.323 208.247 620.82 209.148L633.959 217.067L647.93 210.732C649.523 210.012 651.249 211.428 650.854 213.129L647.383 228.071L657.725 239.401C658.902 240.691 658.089 242.773 656.349 242.923L641.066 244.239L633.485 257.577C632.622 259.096 630.393 258.965 629.712 257.356Z" fill="#F7CC7F"/>
<path d="M724.825 209.535L722.368 219.426L706.017 217.231L700.641 231.251L688.137 231.61L688.318 237.94L705.044 237.46L710.137 224.176L727.147 226.457L730.843 211.574L724.825 209.535Z" fill="#F48C7F"/>
<path d="M244.661 333.368L157.398 317.119C155.645 316.792 154.488 315.107 154.815 313.354L165.747 254.65C166.074 252.897 167.759 251.74 169.512 252.067L256.775 268.317C258.528 268.644 259.685 270.329 259.358 272.082L248.426 330.785C248.099 332.538 246.414 333.695 244.661 333.368Z" fill="#F7CC7F"/>
<path d="M203.122 266.257L176.56 261.311C174.807 260.986 173.651 259.301 173.977 257.547L175.64 248.614C175.967 246.861 177.652 245.705 179.405 246.033L205.968 250.978C207.721 251.305 208.877 252.989 208.549 254.742L206.888 263.675C206.561 265.428 204.876 266.584 203.122 266.257Z" fill="#F7CC7F"/>
<path d="M248.635 331.122C248.182 332.729 246.578 333.725 244.938 333.42L157.104 317.064C155.47 316.76 154.335 315.264 154.479 313.609L159.076 260.987C159.156 260.081 159.614 259.249 160.34 258.698C161.065 258.147 161.988 257.929 162.883 258.095L260.459 276.264C261.35 276.43 262.13 276.965 262.608 277.735C263.087 278.505 263.219 279.442 262.974 280.315L248.635 331.122Z" fill="#FAE0B2"/>
<path d="M648.881 139.621L633.938 143.702L630.719 125.593L635.61 124.723L637.876 137.478L647.573 134.83L648.881 139.621Z" fill="#50BFA5"/>
<path d="M172.816 389.096C176.558 388.792 182.304 390.441 184.879 392.187C185.266 392.549 188.228 393.728 191.307 398.83L190.615 399.31C187.366 395.908 185.181 395.146 182.578 394.366C178.288 393.263 173.964 394.087 173.608 394.278L172.816 389.096Z" fill="#355389"/>
<path d="M190.96 399.069C190.96 399.069 168.16 402.874 170.287 420.686C172.413 438.498 196.467 452.355 217.935 441.338C246.815 426.519 235.408 388.842 214.852 385.929C194.297 383.015 190.96 399.069 190.96 399.069Z" fill="#F47458"/>
<path d="M200.633 391.226C200.633 391.226 206.582 385.119 219.616 390.675C232.649 396.232 233.592 422.14 221.968 420.634C210.344 419.128 191.338 394.965 200.633 391.226Z" fill="#F48C7F"/>
<path d="M357.487 155.371L263.711 188.822C260.688 189.901 257.364 188.325 256.285 185.302L238.976 136.779C237.897 133.756 239.474 130.431 242.498 129.353L336.273 95.9029C339.296 94.8255 342.622 96.3993 343.699 99.4225L361.008 147.946C362.087 150.969 360.51 154.292 357.487 155.371Z" fill="#86B1F2"/>
<path d="M295.33 142.899C298.778 152.566 293.738 163.197 284.071 166.645C274.403 170.094 263.772 165.053 260.324 155.386C256.875 145.719 261.916 135.088 271.583 131.639C281.25 128.191 291.882 133.232 295.33 142.899Z" fill="white"/>
<path d="M280.491 140.297C281.509 143.148 280.021 146.282 277.171 147.3C274.32 148.317 271.186 146.83 270.168 143.979C269.15 141.129 270.638 137.995 273.488 136.977C276.339 135.959 279.473 137.447 280.491 140.297Z" fill="#86B1F2"/>
<path d="M289.42 155.579L272.925 161.463L272.264 159.611C271.059 156.233 272.822 152.519 276.199 151.314L280.464 149.793C283.84 148.588 287.554 150.349 288.759 153.726L289.42 155.579Z" fill="#86B1F2"/>
<path d="M297.642 132.755C296.643 132.755 295.744 132.123 295.409 131.181C294.971 129.949 295.615 128.591 296.845 128.153L337.839 113.529C338.097 113.438 338.362 113.391 338.634 113.391C339.634 113.391 340.532 114.024 340.867 114.965C341.306 116.195 340.663 117.556 339.431 117.995L298.437 132.617C298.18 132.709 297.913 132.755 297.642 132.755Z" fill="white"/>
<path d="M308.708 142.973C307.709 142.973 306.811 142.341 306.475 141.4C306.037 140.169 306.681 138.81 307.911 138.371L339.929 126.951C340.187 126.86 340.454 126.813 340.724 126.813C341.724 126.813 342.622 127.446 342.957 128.387C343.17 128.983 343.137 129.626 342.866 130.198C342.594 130.771 342.117 131.203 341.521 131.415L309.505 142.836C309.248 142.927 308.979 142.973 308.708 142.973Z" fill="white"/>
<path d="M688.512 523.163L671.348 480.102C670.485 477.936 671.541 475.479 673.707 474.615L735.472 449.999C737.638 449.135 740.093 450.191 740.957 452.358L758.121 495.419C758.984 497.585 757.929 500.042 755.762 500.906L693.999 525.522C691.833 526.386 689.376 525.33 688.512 523.163Z" fill="#FAE0B2"/>
<path d="M746.775 498.263L731.352 459.568C731.103 458.945 731.409 458.243 732.03 457.994C732.651 457.746 733.356 458.049 733.604 458.67L749.026 497.366C749.274 497.989 748.97 498.693 748.349 498.94C747.728 499.187 747.023 498.884 746.775 498.263Z" fill="#466EB6"/>
<path d="M739.428 493.168L726.764 461.397C726.517 460.776 726.819 460.071 727.441 459.823C728.062 459.576 728.768 459.878 729.015 460.499L741.679 492.271C741.926 492.892 741.622 493.596 741.002 493.843C740.379 494.091 739.677 493.79 739.428 493.168Z" fill="#466EB6"/>
<path d="M737.599 501.92L722.176 463.225C721.929 462.604 722.231 461.899 722.854 461.651C723.474 461.404 724.18 461.708 724.427 462.328L739.85 501.023C740.098 501.644 739.795 502.35 739.173 502.597C738.552 502.845 737.846 502.541 737.599 501.92Z" fill="#466EB6"/>
<path d="M729.491 494.921L717.588 465.054C717.341 464.432 717.645 463.728 718.265 463.481C718.886 463.233 719.592 463.537 719.839 464.158L731.743 494.024C731.99 494.647 731.688 495.351 731.065 495.598C730.444 495.845 729.739 495.542 729.491 494.921Z" fill="#466EB6"/>
<path d="M746.361 455.442L746.051 454.662C745.936 454.375 745.624 454.23 745.355 454.338L739.493 456.674C739.222 456.782 739.098 457.101 739.212 457.388L739.523 458.168C739.637 458.455 739.95 458.6 740.219 458.492L746.081 456.156C746.35 456.048 746.476 455.729 746.361 455.442Z" fill="#355389"/>
<path d="M747.689 458.776L747.379 457.997C747.264 457.71 746.954 457.564 746.683 457.672L740.821 460.008C740.552 460.116 740.426 460.434 740.54 460.722L740.851 461.502C740.965 461.789 741.277 461.933 741.546 461.826L747.408 459.49C747.677 459.382 747.804 459.063 747.689 458.776Z" fill="#355389"/>
<path d="M749.017 462.108L748.707 461.327C748.592 461.04 748.28 460.896 748.011 461.004L742.149 463.339C741.879 463.447 741.754 463.766 741.869 464.053L742.179 464.834C742.294 465.121 742.604 465.265 742.875 465.157L748.737 462.822C749.006 462.714 749.132 462.395 749.017 462.108Z" fill="#355389"/>
<path d="M750.347 465.441L750.037 464.663C749.922 464.375 749.612 464.229 749.341 464.337L743.479 466.673C743.21 466.781 743.084 467.1 743.199 467.387L743.509 468.167C743.624 468.454 743.936 468.599 744.205 468.491L750.066 466.155C750.337 466.047 750.462 465.729 750.347 465.441Z" fill="#355389"/>
<path d="M751.675 468.773L751.365 467.993C751.25 467.706 750.938 467.561 750.669 467.669L744.807 470.005C744.538 470.113 744.412 470.432 744.527 470.719L744.837 471.499C744.952 471.786 745.264 471.931 745.533 471.823L751.395 469.487C751.664 469.379 751.79 469.06 751.675 468.773Z" fill="#355389"/>
<path d="M753.004 472.107L752.693 471.328C752.579 471.041 752.267 470.895 751.998 471.003L746.136 473.339C745.865 473.447 745.74 473.767 745.855 474.054L746.165 474.833C746.28 475.12 746.59 475.264 746.861 475.157L752.723 472.821C752.992 472.713 753.118 472.394 753.004 472.107Z" fill="#355389"/>
<path d="M754.332 475.44L754.021 474.66C753.907 474.373 753.596 474.228 753.326 474.336L747.464 476.672C747.195 476.78 747.068 477.099 747.183 477.386L747.493 478.166C747.608 478.454 747.92 478.598 748.189 478.49L754.051 476.154C754.32 476.046 754.446 475.728 754.332 475.44Z" fill="#355389"/>
<path d="M755.66 478.772L755.35 477.992C755.235 477.705 754.923 477.56 754.654 477.668L748.792 480.004C748.521 480.112 748.397 480.431 748.511 480.718L748.822 481.498C748.936 481.785 749.247 481.93 749.517 481.822L755.379 479.486C755.648 479.378 755.775 479.06 755.66 478.772Z" fill="#355389"/>
<path d="M756.99 482.104L756.679 481.326C756.565 481.038 756.254 480.894 755.984 481.002L750.122 483.338C749.853 483.446 749.727 483.764 749.841 484.052L750.152 484.83C750.266 485.117 750.578 485.264 750.847 485.156L756.709 482.82C756.98 482.712 757.104 482.391 756.99 482.104Z" fill="#355389"/>
<path d="M758.318 485.438L758.007 484.658C757.893 484.37 757.581 484.226 757.312 484.334L751.45 486.67C751.181 486.778 751.055 487.096 751.169 487.384L751.48 488.164C751.594 488.451 751.906 488.595 752.175 488.488L758.037 486.152C758.306 486.044 758.432 485.725 758.318 485.438Z" fill="#355389"/>
<path d="M759.646 488.771L759.336 487.991C759.221 487.704 758.911 487.56 758.64 487.667L752.778 490.003C752.509 490.111 752.383 490.43 752.497 490.717L752.808 491.496C752.922 491.783 753.235 491.929 753.503 491.821L759.366 489.485C759.634 489.377 759.761 489.059 759.646 488.771Z" fill="#355389"/>
<path d="M760.974 492.103L760.664 491.323C760.549 491.036 760.237 490.891 759.968 490.999L754.106 493.335C753.837 493.443 753.711 493.762 753.826 494.049L754.136 494.829C754.251 495.117 754.563 495.261 754.832 495.153L760.694 492.817C760.963 492.709 761.089 492.391 760.974 492.103Z" fill="#355389"/>
<path d="M777.167 488.674L752.655 523.578C752.6 523.656 752.557 523.741 752.527 523.832L750.029 531.502C749.738 532.395 750.769 533.133 751.52 532.566L758.081 527.621C758.16 527.561 758.232 527.488 758.29 527.407L782.865 492.411C783.179 491.964 783.058 491.345 782.596 491.049L778.471 488.416C778.037 488.139 777.463 488.253 777.167 488.674Z" fill="#B75742"/>
<path d="M758.263 527.443L758.201 527.53L751.871 532.301L750.145 531.147L752.514 523.877C754.368 524.892 756.591 525.932 758.263 527.443Z" fill="#F7CC7F"/>
<path d="M528.831 111.527C532.361 114.342 538.499 123.405 546.33 129.767C550.91 133.487 554.441 132.541 560.288 133.248C588.034 136.602 580.515 142.273 583.842 142.831C582.898 145.005 574.253 163.38 572.638 167.094C571.149 170.52 568.572 172.053 564.84 171.536C559.103 170.743 553.312 170.154 547.664 168.928C533.184 165.787 525.126 158.546 514.748 149.75C511.996 147.416 511.317 144.506 512.745 141.207C519.389 125.857 528.111 112.94 528.831 111.527Z" fill="#466EB6"/>
<path d="M586.847 164.934C586.723 170.98 587.186 172.194 584.589 171.277C583.025 170.725 581.511 170.006 580.035 169.244C578.995 168.706 578.953 167.997 579.8 167.147C581.032 165.91 582.297 164.705 583.528 163.505C582.627 161.134 583.66 158.375 585.878 157.076C586.331 156.811 585.999 157.372 589.864 148.48C577.087 146.903 568.071 145.846 552.482 143.93C548.315 143.417 544.608 141.796 541.384 139.1C530.249 129.785 519.116 120.467 507.99 111.142C506.481 109.877 506.29 108.022 507.488 106.596C508.405 105.505 509.62 105.452 510.925 105.617C514.484 106.063 549.364 110.398 552.905 110.811C557.559 111.356 561.658 113.107 565.255 116.12C576.194 125.28 587.159 134.407 598.111 143.55C599.614 144.805 600.022 145.957 599.494 147.351C598.915 148.884 597.648 149.616 595.734 149.202C594.351 148.904 593.74 149.32 593.265 150.6C591.117 156.384 589.618 157.664 590.136 159.776C590.536 161.406 588.599 164.227 586.847 164.934Z" fill="#86B1F2"/>
<path d="M644.715 576.369L651.072 582.43C666.108 596.771 678.371 613.764 687.243 632.552L688.216 634.614C688.216 634.614 704.862 636.085 707.187 621.036C692.582 604.544 680.559 586.941 670.638 567.358L667.63 560.319L644.715 576.369Z" fill="#466EB6"/>
<path d="M667.617 560.299C668.434 561.471 663.97 565.996 657.645 570.407C651.321 574.819 645.501 577.496 644.684 576.326C643.867 575.154 648.361 570.575 654.686 566.164C661.011 561.753 666.8 559.128 667.617 560.299Z" fill="#86B1F2"/>
<path d="M667.643 560.342L667.621 560.319C667.621 560.319 654.949 571.045 649.727 572.139L651.34 574.334C653.248 573.301 655.414 571.963 657.644 570.407C663.896 566.048 668.33 561.575 667.643 560.342Z" fill="#355389"/>
<path d="M684.569 591.482C684.593 593.331 683.885 601.311 670.607 604.642C671.481 605.83 672.339 607.031 673.182 608.242C681.586 605.757 685.366 601.442 687.065 598.159C687.332 597.639 687.657 596.94 687.873 596.402C686.752 594.775 685.652 593.135 684.569 591.482Z" fill="#B75742"/>
<path d="M671.798 602.282L652.26 601.584L656.89 605.513L654.122 610.535L672.617 605.82L671.798 602.282Z" fill="#B75742"/>
<path d="M673.581 606.828L666.637 618.922L671.521 617.063L673.4 620.903L676.664 608.183L673.581 606.828Z" fill="#B75742"/>
<path d="M676.233 610.105C672.801 610.348 669.816 607.68 669.566 604.144C669.315 600.607 671.895 597.544 675.326 597.302C678.758 597.06 681.743 599.728 681.994 603.264C682.244 606.8 679.664 609.863 676.233 610.105Z" fill="#F47458"/>
<path d="M717.711 336.365L676.56 299.644C673.886 297.258 675 292.349 678.689 290.26L711.53 271.663C713.632 270.473 716.001 270.584 717.525 271.944L758.675 308.665C761.348 311.051 760.236 315.96 756.547 318.048L723.706 336.643C721.602 337.834 719.235 337.724 717.711 336.365Z" fill="#9BC1F9"/>
<path d="M715.761 307.156L712.331 278.943C712.2 277.862 712.985 276.709 714.087 276.365C715.189 276.021 716.191 276.621 716.322 277.7L719.479 303.659L750.682 311.205C751.698 311.451 752.168 312.546 751.728 313.655C751.288 314.761 750.106 315.462 749.087 315.214L715.761 307.156Z" fill="white"/>
<path d="M178.408 178.564L182.661 186.978L192.272 186.667L196.372 196.436L206.504 192.948L211.629 203.792L221.356 201.732L227.992 211.357L224.349 213.869L219.387 206.672L209.122 208.845L204.197 198.423L193.894 201.969L189.37 191.188L179.985 191.492L176.044 183.692L169.923 185.181L168.877 180.882L178.408 178.564Z" fill="#F7CC7F"/>
<path d="M693.03 394.412L701.765 397.961L708.806 391.413L718.316 396.085L723.665 386.8L734.65 391.609L740.63 383.666L751.959 386.564L750.861 390.851L742.391 388.684L736.081 397.066L725.521 392.443L720.082 401.886L709.588 396.729L702.712 403.123L694.617 399.832L690.979 404.975L687.365 402.42L693.03 394.412Z" fill="#50BFA5"/>
<path d="M287.878 702.348C287.878 702.348 257.8 583.432 256.033 557.391C254.266 531.351 273.346 540.145 273.346 540.145C273.346 540.145 258.966 490.095 271.224 478.828C283.481 467.564 293.267 489.84 293.267 489.84C293.267 489.84 299.188 429.997 311.768 430.468C335.2 431.343 332.174 496.784 332.174 496.784C332.174 496.784 339.157 471.391 351.427 478.909C369.932 490.245 340.788 540.54 340.788 540.54C340.788 540.54 364.896 541.503 372.887 553.99C387.227 576.394 287.878 702.348 287.878 702.348Z" fill="#50BFA5"/>
<path d="M299.209 687.087C299.209 687.087 199.721 663.692 179.007 644.439C158.294 625.186 180.474 618.564 180.474 618.564C180.474 618.564 131.636 589.358 133.372 571.782C135.107 554.207 159.626 564.803 159.626 564.803C159.626 564.803 120.222 513.471 130.905 504.909C150.803 488.962 196.726 542.648 196.726 542.648C196.726 542.648 183.679 517.693 199.318 514.9C222.906 510.689 236.169 570.99 236.169 570.99C236.169 570.99 233.344 547.334 249.147 551.494C277.5 558.957 299.209 687.087 299.209 687.087Z" fill="#50BFA5"/>
<path d="M249.146 551.494C233.29 547.544 236.168 570.991 236.168 570.991C236.168 570.991 222.906 510.689 199.318 514.9C183.678 517.693 196.723 542.65 196.723 542.65C196.723 542.65 150.802 488.964 130.904 504.91L298.866 687.094C296.743 670.603 275.729 558.117 249.146 551.494Z" fill="#3C8F7C"/>
<path d="M327.267 700.795C327.267 700.795 276.709 645.182 250.41 638.567C224.11 631.951 228.142 651.006 228.142 651.006C228.142 651.006 177.333 602.935 164.704 613.606C152.076 624.276 164.843 635.555 164.843 635.555C164.843 635.555 121.324 626.072 114.487 640.207C103.982 661.928 175.583 676.778 175.583 676.778C175.583 676.778 145.299 677.686 151.76 691.817C161.505 713.128 327.267 700.795 327.267 700.795Z" fill="#355389"/>
<path d="M114.487 640.209C121.324 626.074 164.843 635.554 164.843 635.554C164.843 635.554 152.076 624.276 164.704 613.605C177.333 602.935 226.753 644.685 226.753 644.685C226.753 644.685 215.633 621.24 241.933 627.855C268.231 634.471 327.269 700.797 327.269 700.797L114.487 640.209Z" fill="#466EB6"/>
<path d="M579.144 703.631H291.715C280.736 703.631 271.836 694.398 271.836 683.011V670.753C271.836 659.366 280.736 650.134 291.715 650.134H579.144C565.996 665.04 565.768 687.821 578.616 703.006L579.144 703.631Z" fill="#B75742"/>
<path d="M574.706 656.263H415.283C404.304 656.263 395.404 665.493 395.404 676.881C395.404 688.268 404.304 697.498 415.283 697.498H574.721C567.272 684.849 567.285 668.879 574.706 656.263Z" fill="#FAE0B2"/>
<path d="M478.166 612.981C478.585 612.198 477.949 611.289 476.982 611.289H324.892C312.972 611.289 303.309 619.987 303.309 630.715C303.309 641.443 312.972 650.14 324.892 650.14H477.024C477.995 650.14 478.631 649.227 478.209 648.44C472.186 637.213 472.203 624.159 478.166 612.981Z" fill="#86B1F2"/>
<path d="M477.205 614.905H401.83C387.84 614.905 376.498 622.192 376.498 631.183C376.498 640.173 387.84 647.461 401.83 647.461H477.701C472.515 637.102 472.372 625.309 477.205 614.905Z" fill="#F7CC7F"/>
<path d="M457.741 622.622H447.925C445.813 622.622 444.102 623.331 444.102 624.205V624.348H457.741V622.622Z" fill="#B75742"/>
<path d="M466.114 626.591C466.114 624.398 463.551 622.622 460.388 622.622H447.791C450.19 622.622 452.134 623.97 452.134 625.633L452.074 668.193L459.035 662.719L466.129 668.193L466.114 626.591Z" fill="#F47458"/>
<path d="M450.203 609.89H361.71C353.862 609.89 347.502 602.34 347.502 593.026C347.502 583.713 353.862 576.162 361.71 576.162H450.203C443.439 585.512 443.175 599.225 449.572 608.932L450.203 609.89Z" fill="#FAE0B2"/>
<path d="M347.51 593.026C347.51 583.713 354.023 576.162 362.055 576.162H451.891C452.311 576.162 452.65 575.765 452.645 575.279C452.641 574.799 452.304 574.414 451.891 574.414H309.378C300.513 574.414 293.326 582.746 293.326 593.026C293.326 603.306 300.513 611.638 309.378 611.638H451.891C452.304 611.638 452.641 611.251 452.645 610.771C452.648 610.285 452.309 609.89 451.891 609.89H362.055C354.023 609.89 347.51 602.339 347.51 593.026Z" fill="#466EB6"/>
<path d="M434.751 584.45H424.935C422.823 584.45 421.111 585.145 421.111 586.004V586.143H434.751V584.45Z" fill="#184655"/>
<path d="M443.126 588.344C443.126 586.193 440.563 584.45 437.4 584.45H424.803C427.202 584.45 429.146 585.773 429.146 587.403L429.086 629.141L436.047 623.774L443.141 629.141L443.126 588.344Z" fill="#3C8F7C"/>
<path d="M503.191 538.246H276.759C269.729 538.246 264.029 543.947 264.029 550.978V561.686C264.029 568.716 269.729 574.417 276.759 574.417H503.191L503.074 574.295C493.387 564.212 493.438 548.265 503.191 538.246Z" fill="#F47458"/>
<path d="M499.183 543.6H378.136C371.105 543.6 365.404 549.301 365.404 556.332C365.404 563.362 371.105 569.063 378.136 569.063H499.18C494.73 561.179 494.737 551.477 499.183 543.6Z" fill="#FAE0B2"/>
</g>
<defs>
<clipPath id="clip0_652_3">
<rect width="850" height="850" fill="white"/>
</clipPath>
</defs>
</svg>
