<svg width="32" height="32" viewBox="0 0 32 32" fill="none" xmlns="http://www.w3.org/2000/svg">
<path d="M15.9998 29.3333C14.1332 29.3333 12.3887 28.9833 10.7665 28.2833C9.14428 27.5833 7.73317 26.6333 6.53317 25.4333C5.33317 24.2333 4.38873 22.8166 3.69984 21.1833C3.01095 19.55 2.6665 17.8 2.6665 15.9333C2.6665 14.0666 3.01095 12.3277 3.69984 10.7166C4.38873 9.10552 5.33317 7.69996 6.53317 6.49996C7.73317 5.29996 9.14428 4.36107 10.7665 3.68329C12.3887 3.00551 14.1332 2.66663 15.9998 2.66663C17.8665 2.66663 19.6109 3.00551 21.2332 3.68329C22.8554 4.36107 24.2665 5.29996 25.4665 6.49996C26.6665 7.69996 27.6109 9.10552 28.2998 10.7166C28.9887 12.3277 29.3332 14.0666 29.3332 15.9333C29.3332 17.8 28.9887 19.55 28.2998 21.1833C27.6109 22.8166 26.6665 24.2333 25.4665 25.4333C24.2665 26.6333 22.8554 27.5833 21.2332 28.2833C19.6109 28.9833 17.8665 29.3333 15.9998 29.3333ZM21.2665 11H26.2665C25.5332 9.46663 24.5276 8.18885 23.2498 7.16663C21.9721 6.1444 20.4998 5.42218 18.8332 4.99996C19.3887 5.82218 19.8609 6.71107 20.2498 7.66663C20.6387 8.62218 20.9776 9.73329 21.2665 11ZM12.7998 11H19.2665C19.0221 9.82218 18.6109 8.68329 18.0332 7.58329C17.4554 6.48329 16.7776 5.51107 15.9998 4.66663C15.2887 5.26663 14.6887 6.05552 14.1998 7.03329C13.7109 8.01107 13.2443 9.33329 12.7998 11ZM5.0665 18.9666H10.3665C10.2998 18.3666 10.2609 17.8277 10.2498 17.35C10.2387 16.8722 10.2332 16.4 10.2332 15.9333C10.2332 15.3777 10.2443 14.8833 10.2665 14.45C10.2887 14.0166 10.3332 13.5333 10.3998 13H5.0665C4.91095 13.5333 4.80539 14.0111 4.74984 14.4333C4.69428 14.8555 4.6665 15.3555 4.6665 15.9333C4.6665 16.5111 4.69428 17.0277 4.74984 17.4833C4.80539 17.9388 4.91095 18.4333 5.0665 18.9666ZM13.1665 27C12.6109 26.1555 12.1332 25.2444 11.7332 24.2666C11.3332 23.2888 10.9998 22.1888 10.7332 20.9666H5.73317C6.57762 22.5444 7.55539 23.7833 8.6665 24.6833C9.77762 25.5833 11.2776 26.3555 13.1665 27ZM5.73317 11H10.7665C11.0109 9.79996 11.3221 8.72774 11.6998 7.78329C12.0776 6.83885 12.5554 5.92218 13.1332 5.03329C11.4665 5.45552 10.0109 6.16663 8.7665 7.16663C7.52206 8.16663 6.51095 9.4444 5.73317 11ZM15.9998 27.4C16.7776 26.6 17.4276 25.6833 17.9498 24.65C18.4721 23.6166 18.8998 22.3888 19.2332 20.9666H12.7998C13.1109 22.3 13.5276 23.5 14.0498 24.5666C14.5721 25.6333 15.2221 26.5777 15.9998 27.4ZM12.4332 18.9666H19.5998C19.6887 18.2777 19.7443 17.7166 19.7665 17.2833C19.7887 16.85 19.7998 16.4 19.7998 15.9333C19.7998 15.4888 19.7887 15.0611 19.7665 14.65C19.7443 14.2388 19.6887 13.6888 19.5998 13H12.4332C12.3443 13.6888 12.2887 14.2388 12.2665 14.65C12.2443 15.0611 12.2332 15.4888 12.2332 15.9333C12.2332 16.4 12.2443 16.85 12.2665 17.2833C12.2887 17.7166 12.3443 18.2777 12.4332 18.9666V18.9666ZM18.8665 26.9666C20.4665 26.4555 21.9054 25.6888 23.1832 24.6666C24.4609 23.6444 25.4887 22.4111 26.2665 20.9666H21.2998C21.0109 22.1666 20.6721 23.2555 20.2832 24.2333C19.8943 25.2111 19.4221 26.1222 18.8665 26.9666V26.9666ZM21.5998 18.9666H26.9332C27.0887 18.4333 27.1943 17.9388 27.2498 17.4833C27.3054 17.0277 27.3332 16.5111 27.3332 15.9333C27.3332 15.3555 27.3054 14.8555 27.2498 14.4333C27.1943 14.0111 27.0887 13.5333 26.9332 13H21.6332C21.6998 13.7777 21.7443 14.3722 21.7665 14.7833C21.7887 15.1944 21.7998 15.5777 21.7998 15.9333C21.7998 16.4222 21.7832 16.8833 21.7498 17.3166C21.7165 17.75 21.6665 18.3 21.5998 18.9666V18.9666Z" fill="#005694"/>
</svg>
